<svg width="21" height="20" viewBox="0 0 21 20" fill="none" xmlns="http://www.w3.org/2000/svg">
<path d="M10.4999 6.66659C11.4166 6.66659 12.1666 5.91659 12.1666 4.99992C12.1666 4.08325 11.4166 3.33325 10.4999 3.33325C9.58325 3.33325 8.83325 4.08325 8.83325 4.99992C8.83325 5.91659 9.58325 6.66659 10.4999 6.66659ZM10.4999 8.33325C9.58325 8.33325 8.83325 9.08325 8.83325 9.99992C8.83325 10.9166 9.58325 11.6666 10.4999 11.6666C11.4166 11.6666 12.1666 10.9166 12.1666 9.99992C12.1666 9.08325 11.4166 8.33325 10.4999 8.33325ZM10.4999 13.3333C9.58325 13.3333 8.83325 14.0833 8.83325 14.9999C8.83325 15.9166 9.58325 16.6666 10.4999 16.6666C11.4166 16.6666 12.1666 15.9166 12.1666 14.9999C12.1666 14.0833 11.4166 13.3333 10.4999 13.3333Z" fill="white"/>
</svg>
