<svg width="22" height="23" viewBox="0 0 22 23" fill="none" xmlns="http://www.w3.org/2000/svg">
<circle cx="10.7015" cy="11.4852" r="9.8097" stroke="#7D7D7D" stroke-width="1.78358"/>
<path d="M7.03137 15.6755V6.59548H10.6137C11.2995 6.59548 11.8847 6.71815 12.3695 6.96347C12.8571 7.20584 13.2281 7.55019 13.4823 7.99651C13.7394 8.43987 13.868 8.96156 13.868 9.56157C13.868 10.1645 13.738 10.6833 13.4779 11.1178C13.2178 11.5493 12.8409 11.8804 12.3473 12.1109C11.8566 12.3415 11.2625 12.4567 10.565 12.4567H8.16638V10.9138H10.2546C10.6211 10.9138 10.9256 10.8636 11.1679 10.7631C11.4103 10.6626 11.5906 10.5118 11.7088 10.3109C11.83 10.1099 11.8906 9.8601 11.8906 9.56157C11.8906 9.26009 11.83 9.00589 11.7088 8.79899C11.5906 8.59209 11.4088 8.43543 11.1635 8.32903C10.9211 8.21966 10.6152 8.16498 10.2457 8.16498H8.95113V15.6755H7.03137ZM11.935 11.5434L14.1917 15.6755H12.0724L9.86446 11.5434H11.935Z" fill="#7D7D7D"/>
</svg>
