<svg width="25" height="25" viewBox="0 0 25 25" fill="none" xmlns="http://www.w3.org/2000/svg">
<path d="M12.7725 2.77271C7.24246 2.77271 2.77246 7.2427 2.77246 12.7727C2.77246 18.3027 7.24246 22.7727 12.7725 22.7727C18.3025 22.7727 22.7725 18.3027 22.7725 12.7727C22.7725 7.2427 18.3025 2.77271 12.7725 2.77271ZM17.0725 17.0727C16.6825 17.4627 16.0525 17.4627 15.6625 17.0727L12.7725 14.1827L9.88246 17.0727C9.49246 17.4627 8.86246 17.4627 8.47246 17.0727C8.08246 16.6827 8.08246 16.0527 8.47246 15.6627L11.3625 12.7727L8.47246 9.8827C8.08246 9.4927 8.08246 8.8627 8.47246 8.4727C8.86246 8.08271 9.49246 8.08271 9.88246 8.4727L12.7725 11.3627L15.6625 8.4727C16.0525 8.08271 16.6825 8.08271 17.0725 8.4727C17.4625 8.8627 17.4625 9.4927 17.0725 9.8827L14.1825 12.7727L17.0725 15.6627C17.4525 16.0427 17.4525 16.6827 17.0725 17.0727Z" fill="black" fill-opacity="0.25"/>
</svg>
