<svg width="20" height="20" viewBox="0 0 20 20" fill="none" xmlns="http://www.w3.org/2000/svg">
<path d="M7.84967 17.5001C8.14967 17.5001 8.42467 17.3417 8.59134 17.0917L12.4997 10.8334L17.083 10.8334C17.7747 10.8334 18.333 10.2751 18.333 9.58342C18.333 8.89175 17.7747 8.33342 17.083 8.33342H12.4997L8.59134 2.07508C8.43301 1.82508 8.14967 1.66675 7.84967 1.66675C7.26634 1.66675 6.84134 2.23341 7.01634 2.80008L8.74967 8.33342L4.16634 8.33342L3.04134 6.83341C2.96634 6.72508 2.84134 6.66675 2.70801 6.66675H2.21634C1.94134 6.66675 1.74134 6.93342 1.81634 7.20008L2.49967 9.58342L1.81634 11.9667C1.74134 12.2334 1.94134 12.5001 2.21634 12.5001H2.70801C2.84134 12.5001 2.96634 12.4417 3.04134 12.3334L4.16634 10.8334L8.74967 10.8334L7.01634 16.3667C6.84134 16.9334 7.26634 17.5001 7.84967 17.5001Z" fill="#343434"/>
</svg>
