<svg width="21" height="20" viewBox="0 0 21 20" fill="none" xmlns="http://www.w3.org/2000/svg">
<path d="M8.34992 17.5001C8.64992 17.5001 8.92492 17.3417 9.09158 17.0917L12.9999 10.8334L17.5833 10.8334C18.2749 10.8334 18.8333 10.2751 18.8333 9.58342C18.8333 8.89175 18.2749 8.33342 17.5833 8.33342H12.9999L9.09158 2.07508C8.93325 1.82508 8.64992 1.66675 8.34992 1.66675C7.76659 1.66675 7.34158 2.23341 7.51659 2.80008L9.24992 8.33342L4.66658 8.33342L3.54158 6.83341C3.46658 6.72508 3.34158 6.66675 3.20825 6.66675H2.71658C2.44158 6.66675 2.24158 6.93342 2.31658 7.20008L2.99992 9.58342L2.31658 11.9667C2.24158 12.2334 2.44158 12.5001 2.71658 12.5001H3.20825C3.34158 12.5001 3.46658 12.4417 3.54158 12.3334L4.66658 10.8334L9.24992 10.8334L7.51659 16.3667C7.34158 16.9334 7.76659 17.5001 8.34992 17.5001Z" fill="white"/>
</svg>
