<svg width="22" height="20" viewBox="0 0 22 20" fill="none" xmlns="http://www.w3.org/2000/svg">
<path d="M8.63054 17.5C8.94126 17.5 9.22608 17.3417 9.3987 17.0917L13.4466 10.8334L18.1936 10.8334C18.91 10.8334 19.4883 10.275 19.4883 9.58335C19.4883 8.89169 18.91 8.33335 18.1936 8.33335H13.4466L9.3987 2.07502C9.23471 1.82502 8.94126 1.66669 8.63054 1.66669C8.02638 1.66669 7.5862 2.23335 7.76745 2.80002L9.56269 8.33335L4.81566 8.33335L3.65048 6.83335C3.5728 6.72502 3.44334 6.66669 3.30524 6.66669H2.79602C2.5112 6.66669 2.30405 6.93335 2.38173 7.20002L3.08947 9.58335L2.38173 11.9667C2.30405 12.2334 2.5112 12.5 2.79602 12.5H3.30524C3.44334 12.5 3.5728 12.4417 3.65048 12.3334L4.81566 10.8334L9.56269 10.8334L7.76745 16.3667C7.5862 16.9334 8.02638 17.5 8.63054 17.5Z" fill="#004EAE"/>
</svg>
