<svg width="16" height="26" viewBox="0 0 16 26" fill="none" xmlns="http://www.w3.org/2000/svg">
<path d="M4 22.0001V25.8334" stroke="white" stroke-width="1.4375"/>
<path d="M11.667 22V25.8333" stroke="white" stroke-width="1.4375"/>
<path d="M4.91699 1L4.91699 7.70833" stroke="white" stroke-width="1.4375"/>
<path d="M3 1L12.5833 1" stroke="white" stroke-width="1.4375"/>
<path d="M10.667 1L10.667 7.70833" stroke="white" stroke-width="1.4375"/>
<path fill-rule="evenodd" clip-rule="evenodd" d="M3.20801 7.29166C1.62019 7.29166 0.333008 8.57884 0.333008 10.1667V21.6667C0.333008 23.2545 1.62019 24.5417 3.20801 24.5417H12.7913C14.3792 24.5417 15.6663 23.2545 15.6663 21.6667V10.1667C15.6663 8.57884 14.3792 7.29166 12.7913 7.29166H3.20801ZM7.28125 9.20825V21.6666H8.71875V9.20825H7.28125ZM3.44824 21.6666V9.20825H4.88574V21.6666H3.44824ZM11.1152 9.20825V21.6666H12.5527V9.20825H11.1152Z" fill="white"/>
</svg>
