<svg width="20" height="20" viewBox="0 0 20 20" fill="none" xmlns="http://www.w3.org/2000/svg">
<path d="M10.9391 12.1333L12.1308 10.9416L17.4974 16.3108L16.3083 17.4999L10.9391 12.1333ZM14.5166 7.35828L16.8999 4.97494C13.6083 1.68328 8.27494 1.67494 4.98328 4.95828C8.25828 3.87494 11.9083 4.74994 14.5166 7.35828ZM4.95828 4.98328C1.67494 8.27494 1.68328 13.6083 4.97494 16.8999L7.35828 14.5166C4.74994 11.9083 3.87494 8.25828 4.95828 4.98328ZM4.97494 4.96661L4.96661 4.97494C4.64994 7.48328 5.94161 10.7083 8.54994 13.3249L13.3249 8.54994C10.7166 5.94161 7.48328 4.64994 4.97494 4.96661Z" fill="white"/>
</svg>
