<svg width="21" height="20" viewBox="0 0 21 20" fill="none" xmlns="http://www.w3.org/2000/svg">
<path d="M8.35016 17.5C8.65016 17.5 8.92516 17.3417 9.09183 17.0917L13.0002 10.8333L17.5835 10.8333C18.2752 10.8333 18.8335 10.275 18.8335 9.58334C18.8335 8.89167 18.2752 8.33334 17.5835 8.33334H13.0002L9.09183 2.075C8.9335 1.825 8.65016 1.66667 8.35016 1.66667C7.76683 1.66667 7.34183 2.23333 7.51683 2.8L9.25016 8.33334L4.66683 8.33334L3.54183 6.83333C3.46683 6.725 3.34183 6.66667 3.2085 6.66667H2.71683C2.44183 6.66667 2.24183 6.93334 2.31683 7.2L3.00016 9.58334L2.31683 11.9667C2.24183 12.2333 2.44183 12.5 2.71683 12.5H3.2085C3.34183 12.5 3.46683 12.4417 3.54183 12.3333L4.66683 10.8333L9.25016 10.8333L7.51683 16.3667C7.34183 16.9333 7.76683 17.5 8.35016 17.5Z" fill="black" fill-opacity="0.8"/>
</svg>
