<svg width="21" height="20" viewBox="0 0 21 20" fill="none" xmlns="http://www.w3.org/2000/svg">
<path fill-rule="evenodd" clip-rule="evenodd" d="M3.5 3.5C2.39543 3.5 1.5 4.39543 1.5 5.5V14.5C1.5 15.6046 2.39543 16.5 3.5 16.5H17.5C18.6046 16.5 19.5 15.6046 19.5 14.5V5.5C19.5 4.39543 18.6046 3.5 17.5 3.5H3.5ZM15.6598 12.0094L15.6753 12.802L16.6823 12.8084L16.5429 7.52032C16.1223 7.51816 15.8195 7.5156 15.6342 7.51192C15.3918 7.50775 15.2073 7.64706 15.0758 7.92205C14.5728 8.97361 13.8005 10.5906 12.7599 12.7744L13.9005 12.7813L14.2373 11.9974L15.6598 12.0094ZM15.6266 10.9237L14.7099 10.916L15.5631 8.93692L15.6266 10.9237ZM8.98543 7.45629L7.83922 7.44517L6.18736 11.0114C6.18291 10.5892 6.17892 10.2089 6.17537 9.87049C6.16543 8.92278 6.15894 8.30394 6.15533 8.01481C6.1509 7.62315 5.99266 7.43093 5.67579 7.42825L3.84414 7.41273L3.82367 7.55836C4.12803 7.68213 4.43012 7.81172 4.72985 7.94709C4.93249 8.04108 5.01713 8.2369 5.03456 8.51597C5.12266 9.91625 5.21455 11.3154 5.31023 12.7134L6.47058 12.7247L8.98543 7.45629ZM8.91231 12.7447L10.5607 7.46964L9.46886 7.45898L7.82109 12.7333L8.91231 12.7447ZM13.7271 7.64226C13.507 7.52348 13.1134 7.39336 12.787 7.39059C11.6745 7.38117 10.7938 8.06468 10.6396 9.09313C10.5196 9.8912 11.0453 10.2957 11.4251 10.5879L11.4336 10.5945C11.814 10.8865 11.9132 11.0036 11.8781 11.2371C11.8291 11.5656 11.4806 11.7514 11.1054 11.7483C10.6958 11.7448 10.5038 11.6636 10.0595 11.4105L9.69976 12.5513C10.1413 12.7635 10.3411 12.8251 10.9168 12.8405C12.182 12.8512 12.9043 11.9847 13.0358 11.1018C13.1025 10.6756 13.0857 10.2831 12.6049 9.84231C12.4843 9.73162 12.3624 9.63783 12.251 9.55212C11.9732 9.33834 11.7606 9.17481 11.7958 8.92473C11.826 8.70945 12.1235 8.48728 12.5548 8.48178C12.8515 8.47936 13.1831 8.62657 13.382 8.73531L13.7271 7.64226Z" fill="black" fill-opacity="0.8"/>
</svg>
