<svg width="21" height="20" viewBox="0 0 21 20" fill="none" xmlns="http://www.w3.org/2000/svg">
<path d="M10.5002 6.66667C11.4168 6.66667 12.1668 5.91667 12.1668 5C12.1668 4.08333 11.4168 3.33333 10.5002 3.33333C9.5835 3.33333 8.8335 4.08333 8.8335 5C8.8335 5.91667 9.5835 6.66667 10.5002 6.66667ZM10.5002 8.33333C9.5835 8.33333 8.8335 9.08333 8.8335 10C8.8335 10.9167 9.5835 11.6667 10.5002 11.6667C11.4168 11.6667 12.1668 10.9167 12.1668 10C12.1668 9.08333 11.4168 8.33333 10.5002 8.33333ZM10.5002 13.3333C9.5835 13.3333 8.8335 14.0833 8.8335 15C8.8335 15.9167 9.5835 16.6667 10.5002 16.6667C11.4168 16.6667 12.1668 15.9167 12.1668 15C12.1668 14.0833 11.4168 13.3333 10.5002 13.3333Z" fill="black" fill-opacity="0.8"/>
</svg>
