<svg width="20" height="20" viewBox="0 0 20 20" fill="none" xmlns="http://www.w3.org/2000/svg">
<path d="M6.66683 10.0001C6.66683 9.08341 5.91683 8.33341 5.00016 8.33341C4.0835 8.33341 3.3335 9.08341 3.3335 10.0001C3.3335 10.9167 4.0835 11.6667 5.00016 11.6667C5.91683 11.6667 6.66683 10.9167 6.66683 10.0001ZM8.3335 10.0001C8.3335 10.9167 9.0835 11.6667 10.0002 11.6667C10.9168 11.6667 11.6668 10.9167 11.6668 10.0001C11.6668 9.08341 10.9168 8.33341 10.0002 8.33341C9.0835 8.33341 8.3335 9.08341 8.3335 10.0001ZM13.3335 10.0001C13.3335 10.9167 14.0835 11.6667 15.0002 11.6667C15.9168 11.6667 16.6668 10.9167 16.6668 10.0001C16.6668 9.08341 15.9168 8.33341 15.0002 8.33341C14.0835 8.33341 13.3335 9.08341 13.3335 10.0001Z" fill="white"/>
</svg>
